<svg xmlns="http://www.w3.org/2000/svg" viewBox="0 0 48 48"><title>Artboard-4</title><g id="Sun"><path d="M42.76,24l4.3779-4.4136a1.0006,1.0006,0,0,0-.375-1.6465l-5.8574-2.08,2.0215-5.878a.9991.9991,0,0,0-.1641-.9492.9851.9851,0,0,0-.8887-.37l-6.1787.668-.72-6.1724a1,1,0,0,0-1.5215-.7334L28.1768,5.7085,24.8438.4639A1,1,0,0,0,23.1563.4634l-3.334,5.2451L14.5449,2.4258a1,1,0,0,0-1.5215.7334l-.72,6.1733L6.125,8.6646A1,1,0,0,0,5.0723,9.9839l2.0224,5.8769-5.8574,2.08a1.0009,1.0009,0,0,0-.375,1.647L5.24,24,.8623,28.4136a1.0006,1.0006,0,0,0,.375,1.6465l5.8574,2.08-2.0215,5.878A1,1,0,0,0,6.126,39.3369l6.1787-.668.72,6.1724a1,1,0,0,0,1.5215.7334l5.2773-3.2832,3.3331,5.2446a1,1,0,0,0,1.6875.0005l3.3339-5.2451,5.2774,3.2827a1,1,0,0,0,1.5215-.7334l.72-6.1733,6.1787.6679a1,1,0,0,0,1.0527-1.3193l-2.0224-5.8769,5.8574-2.08a1.0009,1.0009,0,0,0,.375-1.647Z" style="fill:#f9ac23"/><circle cx="24" cy="24" r="13" style="fill:#ffce33"/><path d="M15,25a1,1,0,0,1-1-1A10.0114,10.0114,0,0,1,24,14a1,1,0,0,1,0,2,8.0092,8.0092,0,0,0-8,8A1,1,0,0,1,15,25Z" style="fill:#f9ac23"/></g></svg>