<svg xmlns="http://www.w3.org/2000/svg" viewBox="0 0 48 48"><title>Artboard-27</title><g id="Smartwatch"><path d="M39,15H36a1,1,0,0,0-1,1v6a1,1,0,0,0,1,1h3a2.0023,2.0023,0,0,0,2-2V17A2.0023,2.0023,0,0,0,39,15Z" style="fill:#4294ff"/><path d="M12,25H9a2.0023,2.0023,0,0,0-2,2v4a2.0023,2.0023,0,0,0,2,2h3a1,1,0,0,0,1-1V26A1,1,0,0,0,12,25Z" style="fill:#4294ff"/><path d="M36.1675,11.5537a23.4772,23.4772,0,0,1-4.2456-7.6269L30.958.7129A1.0007,1.0007,0,0,0,30,0H18a1.0007,1.0007,0,0,0-.958.7129l-.9639,3.2139a23.4772,23.4772,0,0,1-4.2456,7.6269A3.9676,3.9676,0,0,0,11,14V34a3.9676,3.9676,0,0,0,.8325,2.4463,23.4772,23.4772,0,0,1,4.2456,7.6269l.9639,3.2139A1.0007,1.0007,0,0,0,18,48H30a1.0007,1.0007,0,0,0,.958-.7129l.9639-3.2139a23.4772,23.4772,0,0,1,4.2456-7.6269A3.9676,3.9676,0,0,0,37,34V14A3.9676,3.9676,0,0,0,36.1675,11.5537Z" style="fill:#4294ff"/><rect x="11" y="10" width="26" height="28" rx="4" ry="4" style="fill:#ffce33"/><path d="M30.7676,19.2725A5.5257,5.5257,0,0,0,25.3335,14a5.374,5.374,0,0,0-4.0508,1.8672,3.5255,3.5255,0,0,0-.394-.0215,3.7237,3.7237,0,0,0-3.6665,3.77,3.7626,3.7626,0,0,0,.02.3858A4.2232,4.2232,0,0,0,15,23.77,4.1766,4.1766,0,0,0,19.1113,28h9.333A4.631,4.631,0,0,0,33,23.3076,4.6952,4.6952,0,0,0,30.7676,19.2725Z" style="fill:#4294ff"/><path d="M25,34a1.0011,1.0011,0,0,1-.9487-1.3164l1-3a1,1,0,0,1,1.8974.6328l-1,3A1,1,0,0,1,25,34Z" style="fill:#4294ff"/><path d="M21,34a1.0011,1.0011,0,0,1-.9487-1.3164l1-3a1,1,0,0,1,1.8974.6328l-1,3A1,1,0,0,1,21,34Z" style="fill:#4294ff"/><path d="M29,34a1.0011,1.0011,0,0,1-.9487-1.3164l1-3a1,1,0,0,1,1.8974.6328l-1,3A1,1,0,0,1,29,34Z" style="fill:#4294ff"/><path d="M17,34a1.0011,1.0011,0,0,1-.9487-1.3164l1-3a1,1,0,0,1,1.8974.6328l-1,3A1,1,0,0,1,17,34Z" style="fill:#4294ff"/></g></svg>