<svg xmlns="http://www.w3.org/2000/svg" viewBox="0 0 48 48"><title>Artboard-36</title><g id="Wind"><path d="M43.5,34A3.5042,3.5042,0,0,1,40,30.5V30a1,1,0,0,1,2,0v.5A1.5017,1.5017,0,0,0,43.5,32a2.5,2.5,0,0,0,0-5H7a1,1,0,0,1,0-2H43.5a4.5,4.5,0,0,1,0,9Z" style="fill:#4294ff"/><path d="M34.5,38A3.5042,3.5042,0,0,1,31,34.5V34a1,1,0,0,1,2,0v.5A1.5017,1.5017,0,0,0,34.5,36a2.5,2.5,0,0,0,0-5H22a1,1,0,0,1,0-2H34.5a4.5,4.5,0,0,1,0,9Z" style="fill:#4294ff"/><path d="M15.5,38A3.5042,3.5042,0,0,1,12,34.5V34a1,1,0,0,1,2,0v.5A1.5017,1.5017,0,0,0,15.5,36a2.5,2.5,0,0,0,0-5H4a1,1,0,0,1,0-2H15.5a4.5,4.5,0,0,1,0,9Z" style="fill:#4294ff"/><path d="M29,35H22a1,1,0,0,1,0-2h7a1,1,0,0,1,0,2Z" style="fill:#4294ff"/><path d="M10,35H7a1,1,0,0,1,0-2h3a1,1,0,0,1,0,2Z" style="fill:#4294ff"/><path d="M4,27H1a1,1,0,0,1,0-2H4a1,1,0,0,1,0,2Z" style="fill:#4294ff"/><path d="M39.5,23H4a1,1,0,0,1,0-2H39.5a2.5,2.5,0,0,0,0-5A1.5017,1.5017,0,0,0,38,17.5V18a1,1,0,0,1-2,0v-.5A3.5042,3.5042,0,0,1,39.5,14a4.5,4.5,0,0,1,0,9Z" style="fill:#4294ff"/><path d="M30.5,19H20a1,1,0,0,1,0-2H30.5a2.5,2.5,0,0,0,0-5A1.5017,1.5017,0,0,0,29,13.5V14a1,1,0,0,1-2,0v-.5A3.5042,3.5042,0,0,1,30.5,10a4.5,4.5,0,0,1,0,9Z" style="fill:#4294ff"/><path d="M13.5,19H7a1,1,0,0,1,0-2h6.5a2.5,2.5,0,0,0,0-5A1.5017,1.5017,0,0,0,12,13.5V14a1,1,0,0,1-2,0v-.5A3.5042,3.5042,0,0,1,13.5,10a4.5,4.5,0,0,1,0,9Z" style="fill:#4294ff"/><path d="M25,15H20a1,1,0,0,1,0-2h5a1,1,0,0,1,0,2Z" style="fill:#4294ff"/></g></svg>