<svg xmlns="http://www.w3.org/2000/svg" viewBox="0 0 48 48"><title>Artboard-3</title><g id="Sun_Rain" data-name="Sun Rain"><circle cx="19" cy="18" r="11" style="fill:#ffce33"/><path d="M41.9287,19.9067A9.9873,9.9873,0,0,0,23.28,16.1177,7.0019,7.0019,0,0,0,15,23q0,.3274.0327.6611A6.9994,6.9994,0,0,0,18,37H38a8.9976,8.9976,0,0,0,3.9287-17.0933Z" style="fill:#4294ff"/><path d="M5,19H2a1,1,0,0,1,0-2H5a1,1,0,0,1,0,2Z" style="fill:#ffce33"/><path d="M4.2783,27.5a1,1,0,0,1-.501-1.8662l2.5982-1.5a1,1,0,0,1,1,1.7324l-2.5982,1.5A.997.997,0,0,1,4.2783,27.5Z" style="fill:#ffce33"/><path d="M25.999,6.8755a1,1,0,0,1-.8652-1.5l1.5-2.5982a1,1,0,0,1,1.7324,1l-1.5,2.5982A1,1,0,0,1,25.999,6.8755Z" style="fill:#ffce33"/><path d="M19,5a1,1,0,0,1-1-1V1a1,1,0,0,1,2,0V4A1,1,0,0,1,19,5Z" style="fill:#ffce33"/><path d="M12.001,6.8755a1,1,0,0,1-.8672-.5l-1.5-2.5982a1,1,0,0,1,1.7324-1l1.5,2.5982a1,1,0,0,1-.8652,1.5Z" style="fill:#ffce33"/><path d="M6.8745,12a.9973.9973,0,0,1-.499-.1338l-2.5982-1.5a1,1,0,1,1,1-1.7324l2.5982,1.5A1,1,0,0,1,6.8745,12Z" style="fill:#ffce33"/><path d="M15,43.0005a1.0012,1.0012,0,0,1-.9487-1.3169l1-3a1,1,0,0,1,1.8974.6328l-1,3A1,1,0,0,1,15,43.0005Z" style="fill:#4294ff"/><path d="M21,43.0005a1.0012,1.0012,0,0,1-.9487-1.3169l1-3a1,1,0,0,1,1.8974.6328l-1,3A1,1,0,0,1,21,43.0005Z" style="fill:#4294ff"/><path d="M27,43.0005a1.0008,1.0008,0,0,1-.9482-1.3169l1-3a1,1,0,1,1,1.8964.6328l-1,3A1,1,0,0,1,27,43.0005Z" style="fill:#4294ff"/><path d="M33,43.0005a1.0008,1.0008,0,0,1-.9482-1.3169l1-3a1,1,0,1,1,1.8964.6328l-1,3A1,1,0,0,1,33,43.0005Z" style="fill:#4294ff"/><path d="M39,43.0005a1.0008,1.0008,0,0,1-.9482-1.3169l1-3a1,1,0,1,1,1.8964.6328l-1,3A1,1,0,0,1,39,43.0005Z" style="fill:#4294ff"/><path d="M17,48.0005a1.0012,1.0012,0,0,1-.9487-1.3169l1-3a1,1,0,0,1,1.8974.6328l-1,3A1,1,0,0,1,17,48.0005Z" style="fill:#4294ff"/><path d="M23,48.0005a1.0012,1.0012,0,0,1-.9487-1.3169l1-3a1,1,0,0,1,1.8974.6328l-1,3A1,1,0,0,1,23,48.0005Z" style="fill:#4294ff"/><path d="M29,48.0005a1.0008,1.0008,0,0,1-.9482-1.3169l1-3a1,1,0,1,1,1.8964.6328l-1,3A1,1,0,0,1,29,48.0005Z" style="fill:#4294ff"/><path d="M35,48.0005a1.0008,1.0008,0,0,1-.9482-1.3169l1-3a1,1,0,1,1,1.8964.6328l-1,3A1,1,0,0,1,35,48.0005Z" style="fill:#4294ff"/><path d="M37.9805,21.7178a1,1,0,0,1-.9981-.9541A4.9827,4.9827,0,0,0,32,16a1,1,0,0,1,0-2,6.98,6.98,0,0,1,6.98,6.6719,1,1,0,0,1-.9532,1.0449Z" style="fill:#376cfb"/></g></svg>