<svg xmlns="http://www.w3.org/2000/svg" viewBox="0 0 48 48"><title>Artboard-23</title><g id="Temperature_Winter" data-name="Temperature Winter"><path d="M25.3252,9.9658c.0059-.1191.0088-.2353.0088-.3506,0-4.75-3.5894-8.6152-8-8.6152A8.053,8.053,0,0,0,9.709,7.0225a4.3988,4.3988,0,0,0-.9312-.1,5.0746,5.0746,0,0,0-4.8891,5.2314,5.4742,5.4742,0,0,0,.0859.9668A6.0116,6.0116,0,0,0,0,18.9229,5.89,5.89,0,0,0,5.6665,25H22.7778A7.52,7.52,0,0,0,30,17.2305,7.7476,7.7476,0,0,0,25.3252,9.9658Z" style="fill:#376cfb"/><path d="M39,27.0557V8A8,8,0,0,0,23,8V27.0557a11.9983,11.9983,0,0,0,6.5645,20.86A12.0025,12.0025,0,0,0,43,36,11.9648,11.9648,0,0,0,39,27.0557Z" style="fill:#4294ff"/><path d="M35,29.08V8a4,4,0,0,0-8,0V29.0791a8.0011,8.0011,0,0,0-3.9951,7.2148,8.0924,8.0924,0,0,0,7.8594,7.7051c.0459.001.0918.001.1377.001A8,8,0,0,0,39,36,8.0407,8.0407,0,0,0,35,29.08Z" style="fill:#376cfb"/><path d="M35,24V8a4,4,0,0,0-8,0V24Z" style="fill:#ffce33"/><path d="M47,11H42a1,1,0,0,1,0-2h5a1,1,0,0,1,0,2Z" style="fill:#ffce33"/><path d="M44,16H42a1,1,0,0,1,0-2h2a1,1,0,0,1,0,2Z" style="fill:#ffce33"/><path d="M47,21H42a1,1,0,0,1,0-2h5a1,1,0,0,1,0,2Z" style="fill:#ffce33"/><path d="M44,26H42a1,1,0,0,1,0-2h2a1,1,0,0,1,0,2Z" style="fill:#ffce33"/><path d="M12.3716,36.8477a1.0014,1.0014,0,0,0-1.3809-.3047L10,37.1754V36a1,1,0,0,0-2,0v1.1754l-.9907-.6324a1,1,0,1,0-1.0762,1.6855L7.1417,39l-1.2086.7715A1,1,0,1,0,7.0093,41.457L8,40.8246V42a1,1,0,0,0,2,0V40.8246l.9907.6324a1,1,0,1,0,1.0762-1.6855L10.8583,39l1.2086-.7715A1,1,0,0,0,12.3716,36.8477Z" style="fill:#376cfb"/><path d="M5.9907,33.457a1,1,0,1,0,1.0762-1.6855L5.8583,31l1.2086-.7715A1,1,0,1,0,5.9907,28.543L5,29.1754V28a1,1,0,0,0-2,0v1.1754l-.9907-.6324A1,1,0,1,0,.9331,30.2285L2.1417,31l-1.2086.7715A1,1,0,1,0,2.0093,33.457L3,32.8246V34a1,1,0,0,0,2,0V32.8246Z" style="fill:#376cfb"/><path d="M17.0669,31.7715,15.8583,31l1.2086-.7715a1,1,0,1,0-1.0762-1.6855L15,29.1754V28a1,1,0,0,0-2,0v1.1754l-.9907-.6324a1,1,0,1,0-1.0762,1.6855L12.1417,31l-1.2086.7715a1,1,0,1,0,1.0762,1.6855L13,32.8246V34a1,1,0,0,0,2,0V32.8246l.9907.6324a1,1,0,1,0,1.0762-1.6855Z" style="fill:#376cfb"/></g></svg>