<svg xmlns="http://www.w3.org/2000/svg" viewBox="0 0 48 48"><title>Artboard-18</title><g id="Sunset_sunrise" data-name="Sunset sunrise"><circle cx="24" cy="27" r="13" style="fill:#ffce33"/><path d="M24,12a1,1,0,0,0,1-1V7a1,1,0,0,0-2,0v4A1,1,0,0,0,24,12Z" style="fill:#ffce33"/><path d="M18.8931,11.8042a1,1,0,0,0,1.9316-.5176L20.3179,9.394a1,1,0,0,0-1.9317.5176Z" style="fill:#ffce33"/><path d="M11.98,16.3936A1,1,0,1,0,13.3936,14.98l-1.3853-1.3853a1,1,0,1,0-1.4141,1.4141Z" style="fill:#ffce33"/><path d="M8.8042,21.8931l-1.8926-.5069a1,1,0,0,0-.5176,1.9317l1.8926.5068a1,1,0,1,0,.5176-1.9316Z" style="fill:#ffce33"/><path d="M15.1338,13.6436a1,1,0,1,0,1.7324-1l-2-3.4639a1,1,0,1,0-1.7324,1Z" style="fill:#ffce33"/><path d="M10.6436,18.1338l-3.4639-2a1,1,0,1,0-1,1.7324l3.4639,2a1,1,0,0,0,1-1.7324Z" style="fill:#ffce33"/><path d="M27.8818,12.5112a.9973.9973,0,0,0,1.2246-.7065l.5079-1.8926a1,1,0,0,0-1.9317-.5185l-.5078,1.8925A.9993.9993,0,0,0,27.8818,12.5112Z" style="fill:#ffce33"/><path d="M34.6064,16.3936a1,1,0,0,0,1.4141,0l1.3858-1.3853a1,1,0,1,0-1.4141-1.4141L34.6064,14.98A1,1,0,0,0,34.6064,16.3936Z" style="fill:#ffce33"/><path d="M42.3125,22.0933a.9984.9984,0,0,0-1.2246-.7071l-1.8916.5069a1,1,0,1,0,.5176,1.9316l1.8916-.5068A1,1,0,0,0,42.3125,22.0933Z" style="fill:#ffce33"/><path d="M31.5,14.01a1.0006,1.0006,0,0,0,1.3662-.3662l2-3.4639a1,1,0,0,0-1.7324-1l-2,3.4639A1,1,0,0,0,31.5,14.01Z" style="fill:#ffce33"/><path d="M42.1865,16.5a1,1,0,0,0-1.3662-.3662l-3.4639,2a1,1,0,0,0,1,1.7324l3.4639-2A1,1,0,0,0,42.1865,16.5Z" style="fill:#ffce33"/><path d="M46,26.73V41.2a3.7556,3.7556,0,0,1-1.5.3,3.8034,3.8034,0,0,1-2.48-.89,3.9727,3.9727,0,0,1-6.02.02,4.0383,4.0383,0,0,1-6,0,4.0383,4.0383,0,0,1-6,0,4.0383,4.0383,0,0,1-6,0,4.0383,4.0383,0,0,1-6,0,4.0381,4.0381,0,0,1-6.02-.02,3.8034,3.8034,0,0,1-2.48.89A3.7556,3.7556,0,0,1,2,41.2V26.73a1.7485,1.7485,0,0,0,1.5.77,1.7419,1.7419,0,0,0,1.61-.95A1,1,0,0,1,5.95,26a.9848.9848,0,0,1,.9.47A2.7135,2.7135,0,0,0,9,28a2.7135,2.7135,0,0,0,2.15-1.53,1.048,1.048,0,0,1,1.7,0A2.7135,2.7135,0,0,0,15,28a2.7135,2.7135,0,0,0,2.15-1.53,1.048,1.048,0,0,1,1.7,0A2.7135,2.7135,0,0,0,21,28a2.7135,2.7135,0,0,0,2.15-1.53,1.048,1.048,0,0,1,1.7,0A2.7135,2.7135,0,0,0,27,28a2.7135,2.7135,0,0,0,2.15-1.53,1.048,1.048,0,0,1,1.7,0A2.7135,2.7135,0,0,0,33,28a2.7135,2.7135,0,0,0,2.15-1.53,1.048,1.048,0,0,1,1.7,0A2.7135,2.7135,0,0,0,39,28a2.7135,2.7135,0,0,0,2.15-1.53,1.0163,1.0163,0,0,1,.9-.47,1,1,0,0,1,.84.55,1.8424,1.8424,0,0,0,3.11.18Z" style="fill:#4294ff"/><path d="M46,35.2015V32.7048a1.8238,1.8238,0,0,1-3.1055-.1521,1.0009,1.0009,0,0,0-.8486-.5517,1.017,1.017,0,0,0-.8955.4712A2.7171,2.7171,0,0,1,39,34a2.7171,2.7171,0,0,1-2.15-1.5278,1.04,1.04,0,0,0-1.6992,0A2.7171,2.7171,0,0,1,33,34a2.7171,2.7171,0,0,1-2.15-1.5278,1.04,1.04,0,0,0-1.6992,0A2.7171,2.7171,0,0,1,27,34a2.7171,2.7171,0,0,1-2.15-1.5278,1.04,1.04,0,0,0-1.6992,0A2.7171,2.7171,0,0,1,21,34a2.7171,2.7171,0,0,1-2.15-1.5278,1.04,1.04,0,0,0-1.6992,0A2.7171,2.7171,0,0,1,15,34a2.7171,2.7171,0,0,1-2.15-1.5278,1.04,1.04,0,0,0-1.6992,0A2.7171,2.7171,0,0,1,9,34a2.7171,2.7171,0,0,1-2.15-1.5278,1,1,0,0,0-1.7441.0805A1.7418,1.7418,0,0,1,3.5,33.5,1.7439,1.7439,0,0,1,2,32.7048v2.4967A3.908,3.908,0,0,0,3.5,35.5a3.828,3.828,0,0,0,2.481-.8916A4.0323,4.0323,0,0,0,12,34.6279a4.0289,4.0289,0,0,0,6,0,4.0289,4.0289,0,0,0,6,0,4.0289,4.0289,0,0,0,6,0,4.0289,4.0289,0,0,0,6,0,3.9681,3.9681,0,0,0,6.019-.0195A3.828,3.828,0,0,0,44.5,35.5,3.908,3.908,0,0,0,46,35.2015Z" style="fill:#376cfb"/></g></svg>