<svg xmlns="http://www.w3.org/2000/svg" viewBox="0 0 48 48"><title>Artboard-15</title><g id="Thunder_Night" data-name="Thunder Night"><path d="M40.2568,17.7344a7.5857,7.5857,0,0,0-14.1289-2.9688A5.4176,5.4176,0,0,0,19.9131,20.22q0,.1722.0117.3516A5.5314,5.5314,0,0,0,22.3877,31H37.1123a7.0444,7.0444,0,0,0,3.1445-13.2656Z" style="fill:#4294ff"/><path d="M14.2969.0283a1.01,1.01,0,0,0-1.0987.4629,1.002,1.002,0,0,0,.125,1.1856,7.9555,7.9555,0,0,1,2.1114,5.3916A8.1422,8.1422,0,0,1,7.2275,15.125a8.1013,8.1013,0,0,1-1.9824-.2412,1,1,0,0,0-.9824,1.6455,10.2816,10.2816,0,0,0,7.5684,3.313A10.1446,10.1446,0,0,0,22.0381,9.7852,10.061,10.061,0,0,0,14.2969.0283Z" style="fill:#ffce33"/><path d="M36.3105,19.5288a.9993.9993,0,0,1-.998-.956,2.6825,2.6825,0,0,0-2.624-2.6275,1,1,0,1,1,0-2,4.6775,4.6775,0,0,1,4.622,4.54,1,1,0,0,1-.955,1.0429Z" style="fill:#376cfb"/><path d="M36.9355,33.5581A1.0011,1.0011,0,0,0,36.0381,33H31.2852l1.7294-7.7832a1,1,0,0,0-1.77-.8267l-10,13a1,1,0,0,0,.793,1.61H26.791l-1.73,7.7832a1.0005,1.0005,0,0,0,1.77.8267l10-13A1.001,1.001,0,0,0,36.9355,33.5581Z" style="fill:#ffce33"/></g></svg>