<svg xmlns="http://www.w3.org/2000/svg" viewBox="0 0 48 48"><title>Artboard-33</title><g id="Snowflake"><path d="M21.6,11.2a1,1,0,0,0-1.2,1.6L24,15.5V19a1,1,0,0,0,2,0V15.5l3.6-2.7A1,1,0,0,0,28.4,11.2L26,13V10.5l3.6-2.7A1,1,0,0,0,28.4,6.2L26,8V5.5l3.6-2.7A1,1,0,1,0,28.4,1.2L26,3V1a1,1,0,0,0-2,0V3L21.6,1.2a1,1,0,0,0-1.2,1.6L24,5.5V8L21.6,6.2a1,1,0,0,0-1.2,1.6L24,10.5V13Z" style="fill:#4294ff"/><path d="M28.3975,20.1982a1,1,0,0,0,1.2011,1.6l2.7991-2.1016,4.3211,1.2578a1,1,0,1,0,.5585-1.92l-2.88-.839,2-1.5015,4.32,1.2584a.9886.9886,0,0,0,.2793.04,1,1,0,0,0,.2793-1.96l-2.88-.839,2-1.5017,4.3205,1.2577a.9886.9886,0,0,0,.2793.04,1,1,0,0,0,.2793-1.96l-2.88-.8389,1.5986-1.2a1,1,0,0,0-1.2012-1.6l-1.5985,1.2-.0021-3a1,1,0,0,0-1-.999H40.19a1,1,0,0,0-.999,1.001l.0026,4.4992-1.9992,1.5011-.0014-2.9993a1,1,0,0,0-2,0l.0017,4.5007-1.9987,1.5007-.0021-2.9995a1,1,0,0,0-1-.999h-.0009a1,1,0,0,0-.9991,1.001l.0027,4.4986Z" style="fill:#4294ff"/><path d="M5.0049,14.9893a.9894.9894,0,0,0,.28-.04l4.32-1.2575,2,1.5016-2.8808.8389a1,1,0,1,0,.56,1.92l4.32-1.2583,2,1.5016-2.88.8388a1,1,0,1,0,.5586,1.92l4.3207-1.2577,2.7989,2.1015a1,1,0,0,0,1.2012-1.6L18.803,18.0967l.0022-4.499a1,1,0,0,0-.9995-1.001h-.0005a1,1,0,0,0-1,1l-.0014,2.9989-1.9993-1.5011.0026-4.5a1,1,0,0,0-.9995-1.0009h-.0005a1,1,0,0,0-1,.999l-.0017,3.0008L10.806,12.0924l.0026-4.5a1,1,0,0,0-.9995-1.001H9.8086a1,1,0,0,0-1,.999l-.0017,3.0006L7.2075,9.3906a1,1,0,1,0-1.2012,1.6l1.5989,1.2005-2.8791.8386a1,1,0,0,0,.2788,1.96Z" style="fill:#4294ff"/><path d="M28.4,36.8A1,1,0,1,0,29.6,35.2l-3.6-2.7V29a1,1,0,0,0-2,0v3.5l-3.6,2.7a1,1,0,0,0,1.2,1.6L24,35v2.5l-3.6,2.7a1,1,0,0,0,1.2,1.6L24,40v2.5l-3.6,2.7a1,1,0,0,0,1.2,1.6L24,45v2a1,1,0,0,0,2,0V45l2.4,1.8A1,1,0,0,0,29.6,45.2l-3.6-2.7V40l2.4,1.8A1,1,0,0,0,29.6,40.2l-3.6-2.7V35Z" style="fill:#4294ff"/><path d="M44.7158,33.0508l-4.3205,1.2577-2-1.5017,2.88-.839a1,1,0,1,0-.5586-1.92l-4.32,1.2584-2-1.5015,2.88-.839a1,1,0,1,0-.5585-1.92l-4.3211,1.2578-2.7991-2.1016a1,1,0,0,0-1.2011,1.6l2.7995,2.1019-.0027,4.4986a1,1,0,0,0,.9991,1.001h.0009a1,1,0,0,0,1-.999l.0021-2.9995,1.9987,1.5007-.0017,4.5008a1,1,0,0,0,2,0l.0014-2.9994L39.194,35.908l-.0026,4.4992a1,1,0,0,0,.999,1.001h.001a1,1,0,0,0,1-.999l.0021-3,1.5985,1.2a1,1,0,0,0,1.2012-1.6l-1.5986-1.2,2.88-.8389a1,1,0,1,0-.5586-1.92Z" style="fill:#4294ff"/><path d="M21.6021,27.8018a1,1,0,0,0-1.2012-1.6L17.602,28.3036l-4.3207-1.2577a1,1,0,1,0-.5586,1.92l2.88.8388-2,1.5016-4.32-1.2583a1,1,0,0,0-.56,1.92l2.8808.8389-2,1.5016-4.32-1.2575a1,1,0,1,0-.5586,1.92l2.8791.8386-1.5989,1.2a1,1,0,0,0,1.2012,1.6l1.5994-1.2008.0017,3.0006a1,1,0,0,0,1,.999h.0005a1,1,0,0,0,.9995-1.001l-.0026-4.5,1.9994-1.5012.0017,3.0008a1,1,0,0,0,1,.9991h.0005a1,1,0,0,0,.9995-1.001l-.0026-4.5,1.9993-1.5011.0014,2.9989a1,1,0,0,0,1,1h.0005a1,1,0,0,0,.9995-1.001l-.0022-4.499Z" style="fill:#4294ff"/><path d="M29.4473,20.1055l-4-2a1.0008,1.0008,0,0,0-.8946,0l-4,2A1,1,0,0,0,20,21v6a1,1,0,0,0,.5527.8945l4,2a1.001,1.001,0,0,0,.8946,0l4-2A1,1,0,0,0,30,27V21A1,1,0,0,0,29.4473,20.1055Z" style="fill:#4294ff"/></g></svg>