<svg xmlns="http://www.w3.org/2000/svg" viewBox="0 0 48 48"><title>Artboard-26</title><g id="Smartphone"><rect x="8" width="32" height="48" rx="4" ry="4" style="fill:#4294ff"/><path d="M36,3H27a1,1,0,0,0-1,1,2,2,0,0,1-4,0,1,1,0,0,0-1-1H12a1,1,0,0,0-1,1V44a1,1,0,0,0,1,1H36a1,1,0,0,0,1-1V4A1,1,0,0,0,36,3Z" style="fill:#ffce33"/><circle cx="24" cy="4" r="1" style="fill:#376cfb"/><path d="M25,43H23a1,1,0,0,1,0-2h2a1,1,0,0,1,0,2Z" style="fill:#4294ff"/><path d="M30.7676,19.2725A5.5257,5.5257,0,0,0,25.3335,14a5.374,5.374,0,0,0-4.0508,1.8672,3.5255,3.5255,0,0,0-.394-.0215,3.7237,3.7237,0,0,0-3.6665,3.77,3.7626,3.7626,0,0,0,.02.3858A4.2232,4.2232,0,0,0,15,23.77,4.1766,4.1766,0,0,0,19.1113,28h9.333A4.631,4.631,0,0,0,33,23.3076,4.6952,4.6952,0,0,0,30.7676,19.2725Z" style="fill:#4294ff"/><path d="M25,34a1.0011,1.0011,0,0,1-.9487-1.3164l1-3a1,1,0,0,1,1.8974.6328l-1,3A1,1,0,0,1,25,34Z" style="fill:#4294ff"/><path d="M21,34a1.0011,1.0011,0,0,1-.9487-1.3164l1-3a1,1,0,0,1,1.8974.6328l-1,3A1,1,0,0,1,21,34Z" style="fill:#4294ff"/><path d="M29,34a1.0011,1.0011,0,0,1-.9487-1.3164l1-3a1,1,0,0,1,1.8974.6328l-1,3A1,1,0,0,1,29,34Z" style="fill:#4294ff"/><path d="M17,34a1.0011,1.0011,0,0,1-.9487-1.3164l1-3a1,1,0,0,1,1.8974.6328l-1,3A1,1,0,0,1,17,34Z" style="fill:#4294ff"/></g></svg>