<svg xmlns="http://www.w3.org/2000/svg" viewBox="0 0 48 48"><title>Artboard-6</title><g id="Cloud_Night" data-name="Cloud Night"><path d="M11.4023,2.0278a1,1,0,0,0-.9672,1.6529,8.8738,8.8738,0,0,1,2.3984,6.0532,9.2054,9.2054,0,0,1-9.333,9.0508,9.361,9.361,0,0,1-2.2588-.2715,1,1,0,0,0-.9751,1.65A11.4749,11.4749,0,0,0,8.667,23.8,11.2074,11.2074,0,0,0,20,12.749,11.079,11.079,0,0,0,11.4023,2.0278Z" style="fill:#ffce33"/><path d="M41.9946,27.6646a9.9925,9.9925,0,0,0-18.1616-5.419,6.9919,6.9919,0,0,0-8.6636,8.2749A7.9982,7.9982,0,0,0,18,46H38.5a9.5009,9.5009,0,0,0,3.4946-18.3354Z" style="fill:#4294ff"/><path d="M38,29a1,1,0,0,1-1-1,5.0059,5.0059,0,0,0-5-5,1,1,0,0,1,0-2,7.0078,7.0078,0,0,1,7,7A1,1,0,0,1,38,29Z" style="fill:#376cfb"/></g></svg>