<svg xmlns="http://www.w3.org/2000/svg" viewBox="0 0 48 48"><title>Artboard-12</title><g id="Clouds_winter_night" data-name="Clouds winter night"><path d="M29.3716,41.8481a1,1,0,0,0-1.3809-.3046L27,42.1757V41a1,1,0,0,0-2,0v1.1757l-.9907-.6322a1,1,0,1,0-1.0762,1.6855L24.1413,44l-1.2082.771a1,1,0,1,0,1.0762,1.6855L25,45.8243V47a1,1,0,0,0,2,0V45.8243l.9907.6322a1,1,0,1,0,1.0762-1.6855L27.8587,44l1.2082-.771A1,1,0,0,0,29.3716,41.8481Z" style="fill:#4294ff"/><path d="M39.3716,41.8481a1,1,0,0,0-1.3809-.3046L37,42.1757V41a1,1,0,0,0-2,0v1.1757l-.9907-.6322a1,1,0,1,0-1.0762,1.6855L34.1413,44l-1.2082.771a1,1,0,1,0,1.0762,1.6855L35,45.8243V47a1,1,0,0,0,2,0V45.8243l.9907.6322a1,1,0,1,0,1.0762-1.6855L37.8587,44l1.2082-.771A1,1,0,0,0,39.3716,41.8481Z" style="fill:#4294ff"/><path d="M22.9907,38.4565a1,1,0,1,0,1.0762-1.6855L22.8587,36l1.2082-.771a1,1,0,1,0-1.0762-1.6855L22,34.1757V33a1,1,0,0,0-2,0v1.1757l-.9907-.6322a1,1,0,1,0-1.0762,1.6855L19.1413,36l-1.2082.771a1,1,0,1,0,1.0762,1.6855L20,37.8243V39a1,1,0,0,0,2,0V37.8243Z" style="fill:#4294ff"/><path d="M32.9907,38.4565a1,1,0,1,0,1.0762-1.6855L32.8587,36l1.2082-.771a1,1,0,1,0-1.0762-1.6855L32,34.1757V33a1,1,0,0,0-2,0v1.1757l-.9907-.6322a1,1,0,1,0-1.0762,1.6855L29.1413,36l-1.2082.771a1,1,0,1,0,1.0762,1.6855L30,37.8243V39a1,1,0,0,0,2,0V37.8243Z" style="fill:#4294ff"/><path d="M44.0669,36.771,42.8587,36l1.2082-.771a1,1,0,1,0-1.0762-1.6855L42,34.1757V33a1,1,0,0,0-2,0v1.1757l-.9907-.6322a1,1,0,1,0-1.0762,1.6855L39.1413,36l-1.2082.771a1,1,0,1,0,1.0762,1.6855L40,37.8243V39a1,1,0,0,0,2,0V37.8243l.9907.6322a1,1,0,1,0,1.0762-1.6855Z" style="fill:#4294ff"/><path d="M41.4771,17.3291A8.02,8.02,0,0,0,33.6,10a7.8991,7.8991,0,0,0-6.7227,3.877,4.62,4.62,0,0,0-1.5107-.2579,4.9935,4.9935,0,0,0-4.9,5.0713,5.0455,5.0455,0,0,0,.0684.8257A6.0274,6.0274,0,0,0,17,25.0239,5.8807,5.8807,0,0,0,22.7666,31H37.9331A7.2121,7.2121,0,0,0,45,23.6665,7.4253,7.4253,0,0,0,41.4771,17.3291Z" style="fill:#4294ff"/><path d="M13.2729.0278a1,1,0,0,0-.9672,1.6529,7.7814,7.7814,0,0,1,2.102,5.3051A8.0716,8.0716,0,0,1,6.2227,14.92a8.1865,8.1865,0,0,1-1.98-.2383,1,1,0,0,0-.9756,1.65A10.3087,10.3087,0,0,0,10.8149,19.6,10.0733,10.0733,0,0,0,21,9.666,9.9585,9.9585,0,0,0,13.2729.0278Z" style="fill:#ffce33"/><path d="M37.5205,19.06a1,1,0,0,1-.9985-.9615A3.0692,3.0692,0,0,0,33.6,15a1,1,0,0,1,0-2,5.058,5.058,0,0,1,4.92,5.021.9992.9992,0,0,1-.96,1.0376C37.5464,19.06,37.5332,19.06,37.5205,19.06Z" style="fill:#376cfb"/></g></svg>