<svg xmlns="http://www.w3.org/2000/svg" viewBox="0 0 48 48"><title>Artboard-29</title><g id="Wind_Sun" data-name="Wind Sun"><circle cx="20" cy="17" r="11" style="fill:#ffce33"/><path d="M40.832,18.3213A9.4078,9.4078,0,0,0,31.5,9a9.2948,9.2948,0,0,0-7.2314,3.4883,5.8652,5.8652,0,0,0-1.1016-.1035,6.0781,6.0781,0,0,0-5.8818,7.2705A6.936,6.936,0,0,0,19.833,33h17.5a7.7855,7.7855,0,0,0,3.499-14.6787Z" style="fill:#4294ff"/><path d="M43.5,44A3.5042,3.5042,0,0,1,40,40.5V40a1,1,0,0,1,2,0v.5A1.5017,1.5017,0,0,0,43.5,42a2.5,2.5,0,0,0,0-5H17a1,1,0,0,1,0-2H43.5a4.5,4.5,0,0,1,0,9Z" style="fill:#4294ff"/><path d="M34.5,48A3.5042,3.5042,0,0,1,31,44.5V44a1,1,0,0,1,2,0v.5A1.5017,1.5017,0,0,0,34.5,46a2.5,2.5,0,0,0,0-5H22a1,1,0,0,1,0-2H34.5a4.5,4.5,0,0,1,0,9Z" style="fill:#4294ff"/><path d="M15.5,48A3.5042,3.5042,0,0,1,12,44.5V44a1,1,0,0,1,2,0v.5A1.5017,1.5017,0,0,0,15.5,46a2.5,2.5,0,0,0,0-5H5a1,1,0,0,1,0-2H15.5a4.5,4.5,0,0,1,0,9Z" style="fill:#4294ff"/><path d="M29,45H22a1,1,0,0,1,0-2h7a1,1,0,0,1,0,2Z" style="fill:#4294ff"/><path d="M10,45H1a1,1,0,0,1,0-2h9a1,1,0,0,1,0,2Z" style="fill:#4294ff"/><path d="M13,37H9a1,1,0,0,1,0-2h4a1,1,0,0,1,0,2Z" style="fill:#4294ff"/><path d="M36.833,19.4619a1,1,0,0,1-1-1A4.4039,4.4039,0,0,0,31.5,14a1,1,0,0,1,0-2,6.4053,6.4053,0,0,1,6.333,6.4619A1,1,0,0,1,36.833,19.4619Z" style="fill:#376cfb"/><path d="M20,4a1,1,0,0,1-1-1V1a1,1,0,0,1,2,0V3A1,1,0,0,1,20,4Z" style="fill:#ffce33"/><path d="M13.001,5.876a1.0011,1.0011,0,0,1-.8672-.5l-1-1.7324a1,1,0,1,1,1.7324-1l1,1.7324a1,1,0,0,1-.8652,1.5Z" style="fill:#ffce33"/><path d="M7.875,11a.9946.9946,0,0,1-.499-.1338l-1.7324-1a1,1,0,1,1,1-1.7324l1.7324,1A1,1,0,0,1,7.875,11Z" style="fill:#ffce33"/><path d="M6,18H4a1,1,0,0,1,0-2H6a1,1,0,0,1,0,2Z" style="fill:#ffce33"/><path d="M6.1445,26a1,1,0,0,1-.5009-1.8662l1.7324-1a1,1,0,0,1,1,1.7324l-1.7324,1A.9949.9949,0,0,1,6.1445,26Z" style="fill:#ffce33"/><path d="M26.999,5.876a1,1,0,0,1-.8652-1.5l1-1.7324a1,1,0,1,1,1.7324,1l-1,1.7324A1.0011,1.0011,0,0,1,26.999,5.876Z" style="fill:#ffce33"/></g></svg>