<svg xmlns="http://www.w3.org/2000/svg" viewBox="0 0 48 48"><title>Artboard-5</title><g id="Night_Rain" data-name="Night Rain"><path d="M43.1377,20.55A9.6125,9.6125,0,0,0,25.2061,16.9,6.7512,6.7512,0,0,0,17.25,23.5415c0,.2012.01.4043.0283.6084A6.75,6.75,0,0,0,20.167,37H39.333a8.6645,8.6645,0,0,0,3.8047-16.45Z" style="fill:#4294ff"/><path d="M17,43.0005a1.0008,1.0008,0,0,1-.9482-1.3169l1-3a1,1,0,1,1,1.8964.6328l-1,3A1,1,0,0,1,17,43.0005Z" style="fill:#4294ff"/><path d="M23,43.0005a1.0008,1.0008,0,0,1-.9482-1.3169l1-3a1,1,0,1,1,1.8964.6328l-1,3A1,1,0,0,1,23,43.0005Z" style="fill:#4294ff"/><path d="M29,43.0005a1.0008,1.0008,0,0,1-.9482-1.3169l1-3a1,1,0,1,1,1.8964.6328l-1,3A1,1,0,0,1,29,43.0005Z" style="fill:#4294ff"/><path d="M35,43.0005a1.0008,1.0008,0,0,1-.9482-1.3169l1-3a1,1,0,1,1,1.8964.6328l-1,3A1,1,0,0,1,35,43.0005Z" style="fill:#4294ff"/><path d="M41,43.0005a1.0008,1.0008,0,0,1-.9482-1.3169l1-3a1,1,0,1,1,1.8964.6328l-1,3A1,1,0,0,1,41,43.0005Z" style="fill:#4294ff"/><path d="M19,48.0005a1.0008,1.0008,0,0,1-.9482-1.3169l1-3a1,1,0,1,1,1.8964.6328l-1,3A1,1,0,0,1,19,48.0005Z" style="fill:#4294ff"/><path d="M25,48.0005a1.0008,1.0008,0,0,1-.9482-1.3169l1-3a1,1,0,1,1,1.8964.6328l-1,3A1,1,0,0,1,25,48.0005Z" style="fill:#4294ff"/><path d="M31,48.0005a1.0008,1.0008,0,0,1-.9482-1.3169l1-3a1,1,0,1,1,1.8964.6328l-1,3A1,1,0,0,1,31,48.0005Z" style="fill:#4294ff"/><path d="M37,48.0005a1.0008,1.0008,0,0,1-.9482-1.3169l1-3a1,1,0,1,1,1.8964.6328l-1,3A1,1,0,0,1,37,48.0005Z" style="fill:#4294ff"/><path d="M11.4023.0278a1,1,0,0,0-.9668,1.6529A8.8735,8.8735,0,0,1,12.834,7.7339a9.2054,9.2054,0,0,1-9.333,9.0508,9.349,9.349,0,0,1-2.2588-.2715,1,1,0,0,0-.9756,1.65A11.4732,11.4732,0,0,0,8.667,21.8,11.2074,11.2074,0,0,0,20,10.749,11.0786,11.0786,0,0,0,11.4023.0278Z" style="fill:#ffce33"/><path d="M39.19,22.36a1,1,0,0,1-.9981-.9541A4.61,4.61,0,0,0,33.583,17a1,1,0,0,1,0-2A6.6063,6.6063,0,0,1,40.19,21.3145a1,1,0,0,1-.9532,1.0449Z" style="fill:#376cfb"/></g></svg>