<svg xmlns="http://www.w3.org/2000/svg" viewBox="0 0 48 48"><title>Artboard-2</title><g id="Cloud_Sun-2" data-name="Cloud Sun"><circle cx="18" cy="22" r="11" style="fill:#ffce33"/><path d="M41.9946,25.6646a9.9925,9.9925,0,0,0-18.1616-5.419,6.9919,6.9919,0,0,0-8.6636,8.2749A7.9982,7.9982,0,0,0,18,44H38.5a9.5009,9.5009,0,0,0,3.4946-18.3354Z" style="fill:#4294ff"/><path d="M4,23H1a1,1,0,0,1,0-2H4a1,1,0,0,1,0,2Z" style="fill:#ffce33"/><path d="M5.979,35.021a1,1,0,0,1-.707-1.707l2.1216-2.1216a1,1,0,0,1,1.414,1.414L6.686,34.728A.9967.9967,0,0,1,5.979,35.021Z" style="fill:#ffce33"/><path d="M27.8994,13.1006a1,1,0,0,1-.707-1.707L29.314,9.272a1,1,0,1,1,1.414,1.414l-2.1216,2.1216A.9967.9967,0,0,1,27.8994,13.1006Z" style="fill:#ffce33"/><path d="M18,9a1,1,0,0,1-1-1V5a1,1,0,0,1,2,0V8A1,1,0,0,1,18,9Z" style="fill:#ffce33"/><path d="M8.1006,13.1006a.9967.9967,0,0,1-.707-.293L5.272,10.686A1,1,0,1,1,6.686,9.272l2.1216,2.1216a1,1,0,0,1-.707,1.707Z" style="fill:#ffce33"/><path d="M38,27a1,1,0,0,1-1-1,5.0059,5.0059,0,0,0-5-5,1,1,0,0,1,0-2,7.0078,7.0078,0,0,1,7,7A1,1,0,0,1,38,27Z" style="fill:#376cfb"/></g></svg>